<?xml version="1.0" encoding="utf-8"?>
<!-- Generator: Adobe Illustrator 18.0.0, SVG Export Plug-In . SVG Version: 6.00 Build 0)  -->
<!DOCTYPE svg PUBLIC "-//W3C//DTD SVG 1.1//EN" "http://www.w3.org/Graphics/SVG/1.1/DTD/svg11.dtd">
<svg version="1.1" id="Layer_1" xmlns="http://www.w3.org/2000/svg" xmlns:xlink="http://www.w3.org/1999/xlink" x="0px" y="0px"
	 viewBox="0 0 682 459" enable-background="new 0 0 682 459" xml:space="preserve">
<rect y="0" width="682" height="459"/>
<path fill="#BE1E2D" d="M339.3,204c-1.8-21-23.6-36.7-44.1-32.3c-22.1,3-37.4,28.9-29.1,49.8c5,15.5,20.7,26.1,36.8,26
	C324.6,246.9,343,225.8,339.3,204z"/>
<path fill="#FFFFFF" d="M500.1,277.2c-7.2-16-16.4-31.2-24.2-47c-2.9-5.6-1.7-12.1-2-18.2c1.6-39.9-15.2-80.1-44.8-106.9
	c-25.2-23.3-59.2-36.4-93.5-36.5c-32.8,0.2-65.6,12.2-90.1,34.2c-33.8,29.2-51.8,75.7-46.4,120.1c3.9,27.5,15,54.4,33.9,75.1
	c2.8,3.7,7.5,7,7.2,12.1c0.6,24.6-0.6,49.2,0.5,73.8c1.3,9,15.8,8.1,16.9-0.7c1.2-23.3,0-46.7,0.5-70c-0.3-6.6,1.4-14.7-4.6-19.3
	c-23.3-22.6-37.9-54.6-37.1-87.3c-0.8-33.3,14.3-66.1,38.6-88.5c21.7-19.8,50.9-32.1,80.4-31.3c34.7-0.9,68.9,15.6,91.4,41.7
	c17.8,20.8,28.6,47.8,28.8,75.3c1.3,10.7-2.4,22.6,3.3,32.4c7.5,14.4,15.1,28.7,22.6,43.1c2.2,3.9,2.8,8.3,3.5,12.5
	c-8.1,0.8-16.3,0.2-24.4,1.5c-2.8,1.5-4.9,4.3-4.9,7.5c-1,16.8,0.5,33.6-0.5,50.4c-0.1,9.6-10.4,17.7-19.8,15.7
	c-37.8-7-75.9-12.1-113.5-19.5c-7.4-2.3-11.4-10.4-11.1-17.8c-0.2-18.9-0.1-37.8,0-56.7c0-2.9,0-5.7,0-8.6
	c25.8-4.3,47.5-28.4,46.2-55.1c1.9-29.6-25-56.3-54.2-56.5c-20.9-0.6-41.1,12-50.7,30.4c-8,16.1-7.9,35.8,0.2,51.8
	c8.2,15.3,23.3,26.4,40.4,29.3c0,2.9,0.1,5.7,0.1,8.6c0.1,19.9-0.2,39.7,0.1,59.6c-0.1,10.9,6.4,21,15,27.4c8.7,6.3,19.7,7.3,30,9
	c33.1,4.4,65.8,11.9,99,15.9c18.7,1.7,35.9-14.6,36.7-33c0.6-13.5,0.1-27.1,0.1-40.6c8.7-1.1,19-2.3,24.4-10.2
	C503.6,294.2,503.6,284.7,500.1,277.2z M302.8,247.4c-16.1,0.1-31.8-10.5-36.8-26c-8.2-20.8,7-46.8,29.1-49.8
	c20.5-4.4,42.3,11.3,44.1,32.3C343,225.8,324.6,246.9,302.8,247.4z"/>
</svg>
